<mxfile host="www.draw.io" modified="2019-11-06T17:50:18.223Z" agent="Mozilla/5.0 (Windows NT 10.0; Win64; x64) AppleWebKit/537.36 (KHTML, like Gecko) Chrome/76.0.3809.132 Safari/537.36 OPR/63.0.3368.107" etag="MBJhJzYyXROogkgGkjrq" version="12.2.2" type="github" pages="1">
  <diagram id="kbbmE0Rxq7G7bX6q8z7K" name="Page-1">
    <mxGraphModel dx="924" dy="633" grid="1" gridSize="10" guides="1" tooltips="1" connect="1" arrows="1" fold="1" page="1" pageScale="1" pageWidth="850" pageHeight="1100" math="0" shadow="0">
      <root>
        <mxCell id="0"/>
        <mxCell id="1" parent="0"/>
        <mxCell id="CZel4B7bNpompP-wDs7U-13" value="" style="edgeStyle=orthogonalEdgeStyle;rounded=0;orthogonalLoop=1;jettySize=auto;html=1;fontFamily=Helvetica;fontSize=18;entryX=0.5;entryY=1;entryDx=0;entryDy=0;" parent="1" source="CZel4B7bNpompP-wDs7U-1" target="CZel4B7bNpompP-wDs7U-2" edge="1">
          <mxGeometry relative="1" as="geometry">
            <mxPoint x="100" y="110" as="targetPoint"/>
          </mxGeometry>
        </mxCell>
        <mxCell id="CZel4B7bNpompP-wDs7U-1" value="SCL" style="rounded=1;whiteSpace=wrap;html=1;fontSize=18;fontFamily=Helvetica;fillColor=#FFFFCC;strokeColor=#d6b656;strokeWidth=2;" parent="1" vertex="1">
          <mxGeometry x="40" y="180" width="120" height="60" as="geometry"/>
        </mxCell>
        <mxCell id="CZel4B7bNpompP-wDs7U-7" value="" style="edgeStyle=orthogonalEdgeStyle;rounded=0;orthogonalLoop=1;jettySize=auto;html=1;fontFamily=Helvetica;fontSize=18;" parent="1" source="CZel4B7bNpompP-wDs7U-2" target="CZel4B7bNpompP-wDs7U-4" edge="1">
          <mxGeometry relative="1" as="geometry"/>
        </mxCell>
        <mxCell id="CZel4B7bNpompP-wDs7U-2" value="GRU" style="rounded=1;whiteSpace=wrap;html=1;fontSize=18;fontFamily=Helvetica;strokeColor=#d6b656;strokeWidth=2;fillColor=#FFFFCC;" parent="1" vertex="1">
          <mxGeometry x="40" y="40" width="120" height="60" as="geometry"/>
        </mxCell>
        <mxCell id="CZel4B7bNpompP-wDs7U-8" value="" style="edgeStyle=orthogonalEdgeStyle;rounded=0;orthogonalLoop=1;jettySize=auto;html=1;fontFamily=Helvetica;fontSize=18;" parent="1" source="CZel4B7bNpompP-wDs7U-4" target="CZel4B7bNpompP-wDs7U-5" edge="1">
          <mxGeometry relative="1" as="geometry"/>
        </mxCell>
        <mxCell id="CZel4B7bNpompP-wDs7U-4" value="FCO" style="rounded=1;whiteSpace=wrap;html=1;fontSize=18;fontFamily=Helvetica;strokeColor=#d6b656;strokeWidth=2;fillColor=#FFFFCC;" parent="1" vertex="1">
          <mxGeometry x="200" y="40" width="120" height="60" as="geometry"/>
        </mxCell>
        <mxCell id="CZel4B7bNpompP-wDs7U-9" value="" style="edgeStyle=orthogonalEdgeStyle;rounded=0;orthogonalLoop=1;jettySize=auto;html=1;fontFamily=Helvetica;fontSize=18;" parent="1" source="CZel4B7bNpompP-wDs7U-5" target="CZel4B7bNpompP-wDs7U-6" edge="1">
          <mxGeometry relative="1" as="geometry"/>
        </mxCell>
        <mxCell id="CZel4B7bNpompP-wDs7U-5" value="ATH" style="rounded=1;whiteSpace=wrap;html=1;fontSize=18;fontFamily=Helvetica;strokeColor=#d6b656;strokeWidth=2;fillColor=#FFFFCC;" parent="1" vertex="1">
          <mxGeometry x="370" y="40" width="120" height="60" as="geometry"/>
        </mxCell>
        <mxCell id="CZel4B7bNpompP-wDs7U-6" value="IST" style="rounded=1;whiteSpace=wrap;html=1;fontSize=18;fontFamily=Helvetica;strokeColor=#d6b656;strokeWidth=2;fillColor=#FFFFCC;" parent="1" vertex="1">
          <mxGeometry x="540" y="40" width="120" height="60" as="geometry"/>
        </mxCell>
      </root>
    </mxGraphModel>
  </diagram>
</mxfile>
